<svg width="96" height="96" viewBox="0 0 96 96" fill="none" xmlns="http://www.w3.org/2000/svg">
<g clip-path="url(#clip0_1_2)">
<path d="M0.82515 56.8619C2.13545 63.837 4.97616 70.4348 9.14277 76.1801C13.3094 81.9253 18.6981 86.6752 24.921 90.0875C31.1439 93.4999 38.0461 95.4899 45.1305 95.9142C52.2149 96.3384 59.3053 95.1864 65.891 92.5411C72.4766 89.8959 78.3938 85.8231 83.2163 80.6161C88.0388 75.4092 91.6466 69.1977 93.78 62.4288C95.9134 55.6599 96.5192 48.5022 95.5539 41.4711C94.5886 34.4399 92.0761 27.7104 88.1973 21.7669L67.8598 35.0394C69.7761 37.9757 71.0174 41.3006 71.4944 44.7743C71.9713 48.2481 71.672 51.7844 70.618 55.1287C69.5639 58.4729 67.7815 61.5417 65.3989 64.1143C63.0163 66.6868 60.0929 68.699 56.8392 70.0059C53.5855 71.3128 50.0824 71.882 46.5823 71.6723C43.0822 71.4627 39.6721 70.4796 36.5977 68.7937C33.5232 67.1078 30.8608 64.7611 28.8023 61.9226C26.7438 59.0841 25.3403 55.8244 24.6929 52.3783L0.82515 56.8619Z" fill="#106384"/>
<path d="M88.2858 21.9029C82.2414 12.5722 73.1455 5.62893 62.5512 2.25871C51.9569 -1.11151 40.5213 -0.699728 30.1968 3.42374C19.8724 7.54722 11.2994 15.1267 5.94169 24.8679C0.584006 34.6092 -1.22615 45.9082 0.82031 56.8357L24.6674 52.3697C23.6553 46.9655 24.5505 41.3776 27.2001 36.5601C29.8498 31.7425 34.0895 27.9941 39.1955 25.9548C44.3014 23.9156 49.9569 23.7119 55.1963 25.3787C60.4357 27.0454 64.9341 30.4792 67.9234 35.0937L88.2858 21.9029Z" fill="#00775A"/>
<path d="M48.0001 59.4286C54.3119 59.4286 59.4287 54.3118 59.4287 48C59.4287 41.6882 54.3119 36.5714 48.0001 36.5714C41.6883 36.5714 36.5715 41.6882 36.5715 48C36.5715 54.3118 41.6883 59.4286 48.0001 59.4286Z" fill="#F0F0F0"/>
<path d="M28.3308 21.9413H29.9764V11.2493H27V12.7747H28.3308V21.9413ZM32.1887 13.8893H33.7771C33.8772 13.1413 34.4067 12.4373 35.5514 12.4373C36.6676 12.4373 37.2543 13.0533 37.2543 13.9773C37.2543 15.1213 36.3528 15.5613 34.8789 15.576H34.4925V16.9547H34.8646C36.5674 16.9547 37.4546 17.4387 37.4546 18.8467C37.4546 19.844 36.8536 20.6067 35.6373 20.6067C34.4067 20.6067 33.6912 19.844 33.6197 18.8467H32.0456C32.1458 20.944 33.6769 22 35.6516 22C37.8266 22 39 20.7093 39 19.008C39 17.5267 38.2988 16.6027 37.2113 16.2653V16.2067C38.027 15.928 38.814 15.0627 38.814 13.7867C38.814 12.232 37.6835 11 35.6087 11C33.7055 11 32.3032 12.0413 32.1887 13.8893Z" fill="white"/>
<path d="M47.0122 87H52.9493V85.8351H49.0768C50.5061 84.5232 52.705 82.8679 52.705 80.6976C52.705 79.0913 51.6789 78 49.8708 78C48.2949 78 47.0489 78.9441 47 80.8815H48.3438C48.3804 79.876 48.9057 79.1894 49.8831 79.1894C50.9214 79.1894 51.3246 79.827 51.3246 80.7589C51.3246 82.5123 49.1134 84.1308 47.0122 85.9823V87ZM54.0629 87H60V85.8351H56.1274C57.5567 84.5232 59.7557 82.8679 59.7557 80.6976C59.7557 79.0913 58.7295 78 56.9215 78C55.3456 78 54.0995 78.9441 54.0506 80.8815H55.3944C55.4311 79.876 55.9564 79.1894 56.9337 79.1894C57.9721 79.1894 58.3752 79.827 58.3752 80.7589C58.3752 82.5123 56.1641 84.1308 54.0629 85.9823V87Z" fill="white"/>
</g>
<defs>
<clipPath id="clip0_1_2">
<rect width="96" height="96" fill="white"/>
</clipPath>
</defs>
</svg>
