<svg width="22" height="22" viewBox="0 0 22 22" fill="none" xmlns="http://www.w3.org/2000/svg">
<path d="M21.2326 11.3837H12.1512C11.9477 11.3837 11.7525 11.4646 11.6086 11.6085C11.4646 11.7524 11.3838 11.9476 11.3838 12.1512V21.2326C11.3838 21.4361 11.4646 21.6313 11.6086 21.7752C11.7525 21.9192 11.9477 22 12.1512 22H19.5033C20.1651 21.9987 20.7994 21.7352 21.2673 21.2672C21.7352 20.7993 21.9987 20.165 22.0001 19.5033V12.1512C22.0001 11.9476 21.9192 11.7524 21.7753 11.6085C21.6314 11.4646 21.4362 11.3837 21.2326 11.3837ZM20.4652 19.5033C20.4652 19.7584 20.3638 20.003 20.1835 20.1834C20.0031 20.3638 19.7584 20.4651 19.5033 20.4651H12.9187V12.9186H20.4652V19.5033Z" fill="#151515"/>
<path d="M19.5033 0H12.1512C11.9477 0 11.7525 0.0808552 11.6086 0.224778C11.4646 0.368702 11.3838 0.563904 11.3838 0.767442V9.84884C11.3838 10.0524 11.4646 10.2476 11.6086 10.3915C11.7525 10.5354 11.9477 10.6163 12.1512 10.6163H21.2326C21.4362 10.6163 21.6314 10.5354 21.7753 10.3915C21.9192 10.2476 22.0001 10.0524 22.0001 9.84884V2.49674C21.9987 1.83498 21.7352 1.20071 21.2673 0.732773C20.7994 0.264835 20.1651 0.00135192 19.5033 0ZM20.4652 9.0814H12.9187V1.53488H19.5033C19.7584 1.53488 20.0031 1.63622 20.1835 1.81661C20.3638 1.99699 20.4652 2.24164 20.4652 2.49674V9.0814Z" fill="#151515"/>
<path d="M9.84884 11.3837H0.767442C0.563904 11.3837 0.368702 11.4646 0.224778 11.6085C0.0808552 11.7524 0 11.9476 0 12.1512V19.5033C0.00135192 20.165 0.264835 20.7993 0.732773 21.2672C1.20071 21.7352 1.83498 21.9987 2.49674 22H9.84884C10.0524 22 10.2476 21.9192 10.3915 21.7752C10.5354 21.6313 10.6163 21.4361 10.6163 21.2326V12.1512C10.6163 11.9476 10.5354 11.7524 10.3915 11.6085C10.2476 11.4646 10.0524 11.3837 9.84884 11.3837ZM9.0814 20.4651H2.49674C2.24164 20.4651 1.99699 20.3638 1.81661 20.1834C1.63622 20.003 1.53488 19.7584 1.53488 19.5033V12.9186H9.0814V20.4651Z" fill="#151515"/>
<path d="M9.84884 0H2.49674C1.83498 0.00135192 1.20071 0.264835 0.732773 0.732773C0.264835 1.20071 0.00135192 1.83498 0 2.49674V9.84884C0 10.0524 0.0808552 10.2476 0.224778 10.3915C0.368702 10.5354 0.563904 10.6163 0.767442 10.6163H9.84884C10.0524 10.6163 10.2476 10.5354 10.3915 10.3915C10.5354 10.2476 10.6163 10.0524 10.6163 9.84884V0.767442C10.6163 0.563904 10.5354 0.368702 10.3915 0.224778C10.2476 0.0808552 10.0524 0 9.84884 0ZM9.0814 9.0814H1.53488V2.49674C1.53488 2.24164 1.63622 1.99699 1.81661 1.81661C1.99699 1.63622 2.24164 1.53488 2.49674 1.53488H9.0814V9.0814Z" fill="#151515"/>
</svg>
