<svg width="32" height="32" viewBox="0 0 32 32" fill="none" xmlns="http://www.w3.org/2000/svg">
<path d="M27.096 7.77098L21.103 1.77698C20.673 1.34698 20.078 1.09998 19.469 1.09998H10.392C9.11798 1.09998 8.08198 2.13598 8.08198 3.40998V4.94998H6.53998C5.26598 4.94998 4.22998 5.98598 4.22998 7.25998V28.59C4.22998 29.864 5.26598 30.9 6.53998 30.9H21.61C22.884 30.9 23.92 29.864 23.92 28.59V27.043H25.463C26.737 27.043 27.773 26.007 27.773 24.733V9.40398C27.773 8.78698 27.533 8.20698 27.096 7.77098ZM24.701 7.91998H21.463C21.182 7.91998 20.953 7.69098 20.953 7.40998V4.17198L24.701 7.91998ZM22.12 28.59C22.12 28.871 21.891 29.1 21.61 29.1H6.53998C6.25898 29.1 6.02998 28.871 6.02998 28.59V7.25998C6.02998 6.97898 6.25898 6.74998 6.53998 6.74998H8.08198V24.732C8.08198 26.006 9.11798 27.042 10.392 27.042H22.12V28.59ZM25.463 25.243H10.392C10.111 25.243 9.88198 25.014 9.88198 24.733V3.40998C9.88198 3.12898 10.111 2.89998 10.392 2.89998H19.153V7.40998C19.153 8.68398 20.189 9.71998 21.463 9.71998H25.973V24.732C25.973 25.014 25.744 25.243 25.463 25.243Z" fill="#151515"/>
<path d="M23.424 11.878H12.431C11.934 11.878 11.531 12.281 11.531 12.778C11.531 13.275 11.934 13.678 12.431 13.678H23.425C23.922 13.678 24.325 13.275 24.325 12.778C24.325 12.281 23.921 11.878 23.424 11.878Z" fill="#151515"/>
<path d="M12.431 9.22297H16.839C17.336 9.22297 17.739 8.81997 17.739 8.32297C17.739 7.82597 17.336 7.42297 16.839 7.42297H12.431C11.934 7.42297 11.531 7.82597 11.531 8.32297C11.531 8.81997 11.934 9.22297 12.431 9.22297Z" fill="#151515"/>
<path d="M23.424 16.3329H12.431C11.934 16.3329 11.531 16.7359 11.531 17.2329C11.531 17.7299 11.934 18.1329 12.431 18.1329H23.425C23.922 18.1329 24.325 17.7299 24.325 17.2329C24.325 16.7359 23.921 16.3329 23.424 16.3329Z" fill="#151515"/>
<path d="M23.424 20.788H12.431C11.934 20.788 11.531 21.191 11.531 21.688C11.531 22.185 11.934 22.588 12.431 22.588H23.425C23.922 22.588 24.325 22.185 24.325 21.688C24.325 21.191 23.921 20.788 23.424 20.788Z" fill="#151515"/>
</svg>
