<svg width="32" height="31" viewBox="0 0 32 31" fill="none" xmlns="http://www.w3.org/2000/svg">
<g clip-path="url(#clip0_2156_2959)">
<path d="M21.0703 1.33352C20.9111 1.24082 20.7138 1.24314 20.5569 1.33956L16.1677 4.03592C16.0077 4.13424 15.8061 4.13457 15.6457 4.03678L11.3208 1.39951C11.1641 1.30392 10.9675 1.30194 10.8089 1.39434L0.662433 7.30364C0.335139 7.49425 0.33038 7.96541 0.653758 8.16259L4.53602 10.5299C4.81511 10.7001 4.85852 11.0879 4.62396 11.3156L0.440025 15.3767C0.202465 15.6073 0.25055 16.0009 0.536632 16.1675L5.393 18.996C5.54677 19.0856 5.64136 19.2501 5.64136 19.4281V23.6126C5.64136 23.7906 5.73595 23.9551 5.88973 24.0447L15.6573 29.7331C15.8128 29.8236 16.005 29.8236 16.1606 29.7331L25.9279 24.0447C26.0817 23.9551 26.1763 23.7906 26.1763 23.6126V19.5849C26.1763 19.407 26.2709 19.2424 26.4246 19.1529L31.3404 16.2899C31.6254 16.1239 31.6745 15.7323 31.4392 15.5011L27.1778 11.315C26.946 11.0872 26.9896 10.7024 27.2664 10.5323L31.2254 8.10005C31.5475 7.90217 31.542 7.43221 31.2153 7.24196L21.0703 1.33352ZM20.5828 3.46785C20.7397 3.37142 20.937 3.36909 21.0962 3.4618L27.6577 7.28317C27.9843 7.47342 27.9898 7.9434 27.6677 8.14127L25.4846 9.48236C25.3277 9.57877 25.1316 9.5818 24.9725 9.4891C23.5622 8.66775 20.4709 6.86733 18.409 5.66662C18.0823 5.47638 18.0777 5.00699 18.3998 4.80909L20.5828 3.46785ZM16.1606 14.9361C16.005 15.0267 15.8128 15.0267 15.6573 14.9361L9.13103 11.1352C8.79988 10.9424 8.79988 10.464 9.13103 10.2711L15.6573 6.47022C15.8128 6.37963 16.005 6.37964 16.1606 6.47022L22.6866 10.2711C23.0178 10.464 23.0178 10.9424 22.6866 11.1352L16.1606 14.9361ZM10.7864 3.5207C10.9451 3.4283 11.1416 3.43029 11.2984 3.52587L13.4087 4.8127C13.7321 5.00989 13.7274 5.48105 13.4001 5.67166L6.84368 9.49014C6.68504 9.58254 6.48851 9.58056 6.33176 9.48498L4.2212 8.19814C3.89781 8.00096 3.90256 7.52978 4.22986 7.33916L10.7864 3.5207ZM6.44758 12.1081C6.60849 11.9519 6.85369 11.922 7.04746 12.0348L13.834 15.9873C14.12 16.1539 14.1681 16.5475 13.9306 16.7781L10.9338 19.6869C10.7729 19.8431 10.5277 19.8731 10.3339 19.7602L3.54739 15.8078C3.2613 15.6412 3.21321 15.2476 3.45078 15.017L6.44758 12.1081ZM7.5083 21.0975C7.5083 20.7117 7.92661 20.4713 8.25994 20.6654L10.6232 22.0418C10.817 22.1547 11.0622 22.1247 11.2231 21.9685L14.1273 19.1497C14.4444 18.8419 14.9756 19.0666 14.9756 19.5085V26.3531C14.9756 26.7388 14.5573 26.9793 14.224 26.7852L7.75668 23.0188C7.60289 22.9293 7.5083 22.7647 7.5083 22.5867V21.0975ZM24.3093 22.5867C24.3093 22.7647 24.2147 22.9293 24.061 23.0188L17.5939 26.7851C17.2606 26.9793 16.8423 26.7388 16.8423 26.3531V19.5372C16.8423 19.0939 17.3764 18.8698 17.6927 19.1805L20.6528 22.0882C20.8136 22.2462 21.0601 22.277 21.2548 22.1636L23.5577 20.8225C23.891 20.6284 24.3093 20.8688 24.3093 21.2546V22.5867ZM21.552 19.8775C21.3572 19.9909 21.1107 19.9601 20.9499 19.8021L17.8753 16.7816C17.64 16.5505 17.689 16.1589 17.974 15.9929L24.7645 12.0382C24.9592 11.9248 25.2057 11.9556 25.3665 12.1135L28.4414 15.1341C28.6767 15.3652 28.6276 15.7568 28.3426 15.9228L21.552 19.8775Z" fill="#151515"/>
</g>
<defs>
<clipPath id="clip0_2156_2959">
<rect width="32" height="31" fill="white"/>
</clipPath>
</defs>
</svg>
