<svg width="27" height="27" viewBox="0 0 27 27" fill="none" xmlns="http://www.w3.org/2000/svg">
<g clip-path="url(#clip0_2156_2964)">
<path d="M16.875 14.3438H10.125C9.19687 14.3438 8.4375 13.5844 8.4375 12.6562V9.28125C8.4375 8.35312 9.19687 7.59375 10.125 7.59375H16.875C17.8031 7.59375 18.5625 8.35312 18.5625 9.28125V12.6562C18.5625 13.5844 17.8031 14.3438 16.875 14.3438Z" stroke="#151515" stroke-width="2" stroke-miterlimit="10" stroke-linecap="round" stroke-linejoin="round"/>
<path d="M16.875 7.59375H10.125V4.21875C10.125 2.3625 11.6437 0.84375 13.5 0.84375C15.3563 0.84375 16.875 2.3625 16.875 4.21875V7.59375Z" stroke="#151515" stroke-width="2" stroke-miterlimit="10" stroke-linecap="round" stroke-linejoin="round"/>
<path d="M13.5 10.125V11.8125" stroke="#151515" stroke-width="2" stroke-miterlimit="10" stroke-linecap="round" stroke-linejoin="round"/>
<path d="M13.5 18.5625V21.0938" stroke="#151515" stroke-width="2" stroke-miterlimit="10" stroke-linecap="round" stroke-linejoin="round"/>
<path d="M11.0532 20.3344L13.5001 21.0937" stroke="#151515" stroke-width="2" stroke-miterlimit="10" stroke-linecap="round" stroke-linejoin="round"/>
<path d="M11.9812 23.1187L13.5 21.0938" stroke="#151515" stroke-width="2" stroke-miterlimit="10" stroke-linecap="round" stroke-linejoin="round"/>
<path d="M15.0187 23.1187L13.5 21.0938" stroke="#151515" stroke-width="2" stroke-miterlimit="10" stroke-linecap="round" stroke-linejoin="round"/>
<path d="M15.9469 20.3344L13.5 21.0937" stroke="#151515" stroke-width="2" stroke-miterlimit="10" stroke-linecap="round" stroke-linejoin="round"/>
<path d="M21.9375 18.5625V21.0938" stroke="#151515" stroke-width="2" stroke-miterlimit="10" stroke-linecap="round" stroke-linejoin="round"/>
<path d="M19.4907 20.3344L21.9376 21.0937" stroke="#151515" stroke-width="2" stroke-miterlimit="10" stroke-linecap="round" stroke-linejoin="round"/>
<path d="M20.4187 23.1187L21.9375 21.0938" stroke="#151515" stroke-width="2" stroke-miterlimit="10" stroke-linecap="round" stroke-linejoin="round"/>
<path d="M23.4562 23.1187L21.9375 21.0938" stroke="#151515" stroke-width="2" stroke-miterlimit="10" stroke-linecap="round" stroke-linejoin="round"/>
<path d="M24.3844 20.3344L21.9375 21.0937" stroke="#151515" stroke-width="2" stroke-miterlimit="10" stroke-linecap="round" stroke-linejoin="round"/>
<path d="M5.0625 18.5625V21.0938" stroke="#151515" stroke-width="2" stroke-miterlimit="10" stroke-linecap="round" stroke-linejoin="round"/>
<path d="M2.61572 20.3344L5.0626 21.0937" stroke="#151515" stroke-width="2" stroke-miterlimit="10" stroke-linecap="round" stroke-linejoin="round"/>
<path d="M3.5437 23.1187L5.06245 21.0938" stroke="#151515" stroke-width="2" stroke-miterlimit="10" stroke-linecap="round" stroke-linejoin="round"/>
<path d="M6.58125 23.1187L5.0625 21.0938" stroke="#151515" stroke-width="2" stroke-miterlimit="10" stroke-linecap="round" stroke-linejoin="round"/>
<path d="M7.50937 20.3344L5.0625 21.0937" stroke="#151515" stroke-width="2" stroke-miterlimit="10" stroke-linecap="round" stroke-linejoin="round"/>
</g>
<defs>
<clipPath id="clip0_2156_2964">
<rect width="27" height="27" fill="white"/>
</clipPath>
</defs>
</svg>
