<svg width="34" height="34" viewBox="0 0 34 34" fill="none" xmlns="http://www.w3.org/2000/svg">
<rect x="0.5" y="0.5" width="33" height="33" rx="2.5" fill="white" stroke="#D3D3D3"/>
<g clip-path="url(#clip0_1855_2933)">
<path d="M26.5931 15.719H7.26168C6.59716 15.719 6.05347 16.2627 6.05347 16.9272C6.05347 17.5917 6.59716 18.1354 7.26168 18.1354H26.5931C27.2576 18.1354 27.8013 17.5917 27.8013 16.9272C27.8013 16.2627 27.2576 15.719 26.5931 15.719ZM7.26168 24.1765H19.3438C20.0083 24.1765 20.552 23.6328 20.552 22.9682C20.552 22.3037 20.0083 21.76 19.3438 21.76H7.26168C6.59716 21.76 6.05347 22.3037 6.05347 22.9682C6.05347 23.6328 6.59716 24.1765 7.26168 24.1765ZM26.5931 9.67789H7.26168C6.59716 9.67789 6.05347 10.2216 6.05347 10.8861V10.8982C6.05347 11.5627 6.59716 12.1064 7.26168 12.1064H26.5931C27.2576 12.1064 27.8013 11.5627 27.8013 10.8982V10.8861C27.8013 10.2216 27.2576 9.67789 26.5931 9.67789Z" fill="#323232"/>
</g>
<defs>
<clipPath id="clip0_1855_2933">
<rect width="28.9971" height="28.9971" fill="white" transform="translate(2.42871 2.42859)"/>
</clipPath>
</defs>
</svg>
