<svg width="24" height="24" viewBox="0 0 24 24" fill="none" xmlns="http://www.w3.org/2000/svg">
<path d="M23.6659 15.5C23.6659 15.6683 23.6295 15.8347 23.5592 15.9876C23.4889 16.1405 23.3863 16.2764 23.2585 16.3859L15.0925 23.3859C14.9762 23.4857 14.8413 23.5615 14.6957 23.6091C14.5501 23.6567 14.3965 23.6751 14.2437 23.6634C13.9351 23.6396 13.6487 23.4943 13.4473 23.2593C13.2459 23.0243 13.1461 22.719 13.1699 22.4105C13.1936 22.1019 13.3389 21.8154 13.5739 21.6141L19.3456 16.6665L1.50066 16.6665C1.19124 16.6665 0.89449 16.5436 0.675696 16.3248C0.456902 16.106 0.333984 15.8092 0.333984 15.4998C0.333984 15.1904 0.456902 14.8936 0.675696 14.6748C0.89449 14.4561 1.19124 14.3331 1.50066 14.3331L22.4991 14.3331C22.6524 14.3331 22.8041 14.3633 22.9456 14.422C23.0872 14.4806 23.2158 14.5666 23.3242 14.6749C23.4325 14.7833 23.5185 14.9119 23.5771 15.0535C23.6357 15.195 23.6659 15.3468 23.6659 15.5Z" fill="#151515"/>
<path d="M23.6658 8.49998C23.6658 8.80939 23.5429 9.10613 23.3241 9.32492C23.1053 9.54371 22.8086 9.66663 22.4992 9.66663L1.50066 9.66663C1.26224 9.66668 1.02953 9.59369 0.833854 9.45747C0.638179 9.32126 0.488934 9.12836 0.406213 8.90476C0.323492 8.68115 0.311264 8.43757 0.371178 8.2068C0.431092 7.97603 0.56027 7.76916 0.741322 7.61404L8.90726 0.61404C9.0236 0.514326 9.15845 0.438505 9.30409 0.390904C9.44974 0.343303 9.60333 0.324855 9.75611 0.336613C9.90888 0.348372 10.0578 0.390107 10.1945 0.459435C10.3311 0.528763 10.4528 0.624327 10.5525 0.74067C10.6522 0.857013 10.728 0.991855 10.7756 1.1375C10.8232 1.28315 10.8417 1.43674 10.8299 1.58952C10.8182 1.74229 10.7764 1.89126 10.7071 2.0279C10.6378 2.16455 10.5422 2.2862 10.4259 2.38592L4.65421 7.33349L22.4991 7.33349C22.8085 7.33348 23.1053 7.45636 23.324 7.67512C23.5428 7.89387 23.6658 8.19058 23.6658 8.49998Z" fill="#151515"/>
</svg>
