<svg width="32" height="32" viewBox="0 0 32 32" fill="none" xmlns="http://www.w3.org/2000/svg">
<circle cx="16" cy="16" r="16" fill="#733AFF"/>
<path d="M10.6667 16C12.1394 16 13.3333 14.8061 13.3333 13.3334C13.3333 11.8606 12.1394 10.6667 10.6667 10.6667C9.19391 10.6667 8 11.8606 8 13.3334C8 14.8061 9.19391 16 10.6667 16Z" fill="white"/>
<path d="M24.8888 6.22223H12.4444V8.00001H24.8888V6.22223Z" fill="white"/>
<path d="M24.8889 9.77777H16V11.5555H24.8889V9.77777Z" fill="white"/>
<path d="M24.8889 13.3333H19.5555V15.1111H24.8889V13.3333Z" fill="white"/>
<path d="M14.2222 20.7645L18.4622 15.68L17.0933 14.5422L13.6978 18.6133C13.2941 17.9549 12.687 17.4458 11.9683 17.1631C11.2495 16.8803 10.4583 16.8393 9.7142 17.0461C8.97008 17.253 8.31356 17.6965 7.84391 18.3096C7.37426 18.9228 7.11701 19.6721 7.11108 20.4445V24H14.2222V20.7645Z" fill="white"/>
<path d="M18.5202 19.5998L18.1666 19.2462L17.8131 19.5998L16.9331 20.4798L16.5795 20.8333L16.9331 21.1869L18.4129 22.6667L16.9331 24.1464L16.5795 24.5L16.9331 24.8535L17.8131 25.7335L18.1666 26.0871L18.5202 25.7335L20 24.2538L21.4798 25.7335L21.8333 26.0871L22.1869 25.7335L23.0669 24.8535L23.4204 24.5L23.0669 24.1464L21.5871 22.6667L23.0669 21.1869L23.4204 20.8333L23.0669 20.4798L22.1869 19.5998L21.8333 19.2462L21.4798 19.5998L20 21.0796L18.5202 19.5998ZM15.6111 22.6667C15.6111 20.2417 17.575 18.2778 20 18.2778C22.4249 18.2778 24.3889 20.2417 24.3889 22.6667C24.3889 25.0916 22.4249 27.0555 20 27.0555C17.575 27.0555 15.6111 25.0916 15.6111 22.6667Z" fill="white" stroke="white"/>
</svg>
