<svg width="32" height="32" viewBox="0 0 32 32" fill="none" xmlns="http://www.w3.org/2000/svg">
<circle cx="16" cy="16" r="16" fill="#005FFF"/>
<g clip-path="url(#clip0_1_73)">
<path d="M16 5.33334C13.7491 5.33334 11.9259 7.18031 11.9259 9.45834C11.9259 11.1214 12.4983 11.5862 15.5824 16.1099C15.7847 16.4057 16.217 16.4057 16.4193 16.1099C19.5003 11.5862 20.0741 11.1221 20.0741 9.45834C20.0741 7.18031 18.2509 5.33334 16 5.33334ZM16 11.3833C15.1003 11.3833 14.3704 10.6443 14.3704 9.73334C14.3704 8.82241 15.1003 8.08334 16 8.08334C16.899 8.08334 17.6296 8.82344 17.6296 9.73334C17.6296 10.6432 16.8997 11.3833 16 11.3833ZM6.56377 13.1571C6.35749 13.2396 6.22223 13.4424 6.22223 13.6658V22.3799C6.22223 22.769 6.61232 23.0344 6.96914 22.89L11.6543 20.7333V12.2565C11.3997 11.8233 11.2198 11.4521 11.0907 11.0912L6.56377 13.1571ZM17.3105 16.739C17.0151 17.1721 16.5228 17.4333 16 17.4333C15.4765 17.4333 14.9862 17.1733 14.6875 16.7362C14.1395 15.9312 12.9071 14.154 12.7407 13.9133V20.7024L19.2593 22.9333V13.9133C19.0929 14.154 17.8605 15.9312 17.3105 16.739ZM25.0343 10.8746L20.3457 13.0333V22.9333L25.4349 20.6099C25.642 20.4962 25.7778 20.3243 25.7778 20.1008V11.3833C25.7778 10.9949 25.3907 10.6993 25.0343 10.8746Z" fill="white"/>
</g>
<defs>
<clipPath id="clip0_1_73">
<rect width="19.5556" height="17.6" fill="white" transform="translate(6.22223 5.33334)"/>
</clipPath>
</defs>
</svg>
