<svg width="32" height="32" viewBox="0 0 32 32" fill="none" xmlns="http://www.w3.org/2000/svg">
<circle cx="16" cy="16" r="16" fill="#48ABFC"/>
<g clip-path="url(#clip0_1_76)">
<path d="M12.0278 15.1111C13.5466 15.1111 14.7778 13.8799 14.7778 12.3611C14.7778 10.8423 13.5466 9.61111 12.0278 9.61111C10.509 9.61111 9.27777 10.8423 9.27777 12.3611C9.27777 13.8799 10.509 15.1111 12.0278 15.1111Z" fill="white"/>
<path d="M15.1597 16.6389C14.0841 16.0927 12.8971 15.875 12.0278 15.875C10.325 15.875 6.83331 16.9192 6.83331 19.0069V20.6111H12.5625V19.9973C12.5625 19.2716 12.868 18.544 13.4028 17.9375C13.8294 17.4532 14.4267 17.0036 15.1597 16.6389Z" fill="white"/>
<path d="M19.2083 16.3333C17.2195 16.3333 13.25 17.5617 13.25 20V21.8333H25.1667V20C25.1667 17.5617 21.1971 16.3333 19.2083 16.3333Z" fill="white"/>
<path d="M19.2083 15.1111C21.0646 15.1111 22.5695 13.6063 22.5695 11.75C22.5695 9.89371 21.0646 8.38889 19.2083 8.38889C17.352 8.38889 15.8472 9.89371 15.8472 11.75C15.8472 13.6063 17.352 15.1111 19.2083 15.1111Z" fill="white"/>
</g>
<defs>
<clipPath id="clip0_1_76">
<rect width="19.5556" height="19.5556" fill="white" transform="translate(6.22223 5.33334)"/>
</clipPath>
</defs>
</svg>
