<svg width="32" height="32" viewBox="0 0 32 32" fill="none" xmlns="http://www.w3.org/2000/svg">
<circle cx="16" cy="16" r="16" fill="#005FFF"/>
<path d="M10.6667 16.8889C12.1394 16.8889 13.3333 15.695 13.3333 14.2222C13.3333 12.7495 12.1394 11.5556 10.6667 11.5556C9.19391 11.5556 8 12.7495 8 14.2222C8 15.695 9.19391 16.8889 10.6667 16.8889Z" fill="white"/>
<path d="M24.8888 7.11111H12.4444V8.88889H24.8888V7.11111Z" fill="white"/>
<path d="M24.8889 10.6667H16V12.4444H24.8889V10.6667Z" fill="white"/>
<path d="M24.8889 14.2222H19.5555V16H24.8889V14.2222Z" fill="white"/>
<path d="M14.2222 21.6533L18.4622 16.5689L17.0933 15.4311L13.6978 19.5022C13.2941 18.8438 12.687 18.3347 11.9683 18.0519C11.2495 17.7692 10.4583 17.7281 9.7142 17.935C8.97008 18.1419 8.31356 18.5854 7.84391 19.1985C7.37426 19.8117 7.11701 20.561 7.11108 21.3333V24.8889H14.2222V21.6533Z" fill="white"/>
</svg>
