<svg width="32" height="32" viewBox="0 0 32 32" fill="none" xmlns="http://www.w3.org/2000/svg">
<circle cx="16" cy="16" r="16" fill="#48ABFC"/>
<g clip-path="url(#clip0_1_72)">
<path d="M16 10.9817C16.2689 10.9817 16.4889 11.1994 16.4889 11.4655V11.9493H16.9778C17.2467 11.9493 17.4667 12.167 17.4667 12.4331C17.4667 12.6992 17.2467 12.9169 16.9778 12.9169H16C15.7311 12.9169 15.5111 12.6992 15.5111 12.4331V11.4655C15.5111 11.1994 15.7311 10.9817 16 10.9817ZM20.7911 10.0764L24.6289 10.894C25.3011 11.0694 25.7778 11.656 25.7778 12.3364V21.1414C25.7778 21.9427 25.1208 22.5928 24.3111 22.5928H7.6889C6.87887 22.5928 6.22223 21.9427 6.22223 21.1414V12.3364C6.22223 11.656 6.69981 11.0694 7.37081 10.894L11.2089 10.0764L15.4561 7.27385C15.7586 7.0572 16.2139 7.0572 16.5439 7.27385L20.7911 10.0764ZM14.0445 22.5928H17.9556V19.6901C17.9556 18.6227 17.0786 17.7549 16 17.7549C14.9214 17.7549 14.0445 18.6227 14.0445 19.6901V22.5928ZM9.15556 12.9169C8.88545 12.9169 8.66667 13.1346 8.66667 13.4007V15.3359C8.66667 15.602 8.88545 15.8197 9.15556 15.8197H10.1333C10.4022 15.8197 10.6222 15.602 10.6222 15.3359V13.4007C10.6222 13.1346 10.4022 12.9169 10.1333 12.9169H9.15556ZM21.3778 15.3359C21.3778 15.602 21.5978 15.8197 21.8667 15.8197H22.8445C23.1133 15.8197 23.3333 15.602 23.3333 15.3359V13.4007C23.3333 13.1346 23.1133 12.9169 22.8445 12.9169H21.8667C21.5978 12.9169 21.3778 13.1346 21.3778 13.4007V15.3359ZM9.15556 16.7873C8.88545 16.7873 8.66667 17.005 8.66667 17.2711V19.2063C8.66667 19.4723 8.88545 19.6901 9.15556 19.6901H10.1333C10.4022 19.6901 10.6222 19.4723 10.6222 19.2063V17.2711C10.6222 17.005 10.4022 16.7873 10.1333 16.7873H9.15556ZM21.3778 19.2063C21.3778 19.4723 21.5978 19.6901 21.8667 19.6901H22.8445C23.1133 19.6901 23.3333 19.4723 23.3333 19.2063V17.2711C23.3333 17.005 23.1133 16.7873 22.8445 16.7873H21.8667C21.5978 16.7873 21.3778 17.005 21.3778 17.2711V19.2063ZM16 9.77223C14.515 9.77223 13.3111 10.9636 13.3111 12.4331C13.3111 13.9026 14.515 15.094 16 15.094C17.485 15.094 18.6889 13.9026 18.6889 12.4331C18.6889 10.9636 17.485 9.77223 16 9.77223Z" fill="white"/>
</g>
<defs>
<clipPath id="clip0_1_72">
<rect width="19.5556" height="15.4815" fill="white" transform="translate(6.22223 7.11111)"/>
</clipPath>
</defs>
</svg>
