<svg width="32" height="32" viewBox="0 0 32 32" fill="none" xmlns="http://www.w3.org/2000/svg">
<circle cx="16" cy="16" r="16" fill="#3AB8FF"/>
<g clip-path="url(#clip0_1_75)">
<path d="M16 25.7778C16 25.7778 23.3334 18.9553 23.3334 13.5556C23.3334 8.15578 20.0505 6.22223 16 6.22223C11.9496 6.22223 8.66669 8.15578 8.66669 13.5556C8.66669 18.9553 16 25.7778 16 25.7778ZM12.3334 12.3333C12.3334 10.3081 13.9748 8.66667 16 8.66667C18.0252 8.66667 19.6667 10.3081 19.6667 12.3333C19.6667 14.3586 18.0252 16 16 16C13.9748 16 12.3334 14.3586 12.3334 12.3333Z" fill="white"/>
</g>
<defs>
<clipPath id="clip0_1_75">
<rect width="19.5556" height="19.5556" fill="white" transform="translate(6.22223 6.22223)"/>
</clipPath>
</defs>
</svg>
