<svg width="59" height="59" viewBox="0 0 59 59" fill="none" xmlns="http://www.w3.org/2000/svg">
<path d="M56.1053 51.6354H53.8306V22.987C53.8302 22.8816 53.8019 22.7784 53.7484 22.6876C53.695 22.5969 53.6183 22.522 53.5264 22.4707L30.6293 9.61516C31.4475 9.42271 32.6897 9.2948 33.7498 9.87213C34.7221 10.4069 35.8115 10.6927 36.9211 10.7041C38.206 10.7041 39.3295 10.2731 39.8941 9.43654C39.9602 9.33843 39.9954 9.22291 39.9955 9.10467V2.8532C39.9953 2.72606 39.9544 2.60234 39.8788 2.50016C39.8031 2.39798 39.6967 2.32276 39.5752 2.2855C39.4536 2.24825 39.3233 2.25093 39.2034 2.29318C39.0835 2.33541 38.9802 2.41497 38.9089 2.52018C38.3258 3.38559 36.1928 3.59992 34.3179 2.57894C32.0513 1.34248 29.3721 2.50635 29.258 2.55705C29.1533 2.60385 29.0643 2.68003 29.0018 2.77635C28.9395 2.87269 28.9064 2.98504 28.9065 3.0998V9.31324L5.47248 22.4707C5.38065 22.5223 5.3042 22.5975 5.25096 22.6884C5.19771 22.7793 5.16956 22.8828 5.16942 22.9881V51.6354H2.89469C2.73769 51.6363 2.58746 51.6993 2.47688 51.8109C2.36629 51.9223 2.30438 52.073 2.30469 52.23V56.3946C2.30454 56.4726 2.31978 56.5498 2.34955 56.6218C2.37933 56.6939 2.42303 56.7594 2.47817 56.8146C2.53331 56.8697 2.59879 56.9133 2.67086 56.9432C2.74294 56.9729 2.82017 56.9881 2.89815 56.988H56.1053C56.1833 56.9881 56.2605 56.9729 56.3326 56.9432C56.4047 56.9133 56.4701 56.8697 56.5253 56.8146C56.5804 56.7594 56.6241 56.6939 56.6539 56.6218C56.6837 56.5498 56.6989 56.4726 56.6988 56.3946V52.23C56.6989 52.152 56.6837 52.0746 56.6539 52.0025C56.6242 51.9304 56.5804 51.8648 56.5253 51.8096C56.4703 51.7544 56.4048 51.7105 56.3327 51.6807C56.2606 51.6508 56.1833 51.6354 56.1053 51.6354ZM30.0935 3.51119C30.7941 3.28072 32.4085 2.88893 33.7498 3.62643C35.4784 4.56789 37.4811 4.6981 38.8075 4.0816V8.89955C38.108 9.65664 36.0972 9.79953 34.3133 8.82926C33.5848 8.44489 32.7712 8.2503 31.9476 8.26346C31.3207 8.27023 30.6974 8.35894 30.0935 8.52734V3.51119ZM6.35518 23.3315L29.5 10.3423L52.6425 23.3338V51.6354H49.1774V30.8552C49.175 29.5441 48.6531 28.2876 47.7262 27.3606C46.7991 26.4336 45.5426 25.9117 44.2316 25.9093H44.144C42.833 25.9117 41.5764 26.4336 40.6494 27.3606C39.7224 28.2876 39.2005 29.5441 39.1981 30.8552V51.6354H34.4885V30.8552C34.4861 29.5444 33.9644 28.288 33.0376 27.361C32.1109 26.4341 30.8546 25.9121 29.5438 25.9093H29.4562C28.1452 25.9117 26.8887 26.4336 25.9616 27.3606C25.0347 28.2876 24.5128 29.5441 24.5104 30.8552V51.6354H19.8007V30.8552C19.7983 29.5444 19.2766 28.288 18.3498 27.361C17.4231 26.4341 16.1668 25.9121 14.856 25.9093H14.7684C13.4574 25.9117 12.2009 26.4336 11.2739 27.3606C10.3469 28.2876 9.82502 29.5441 9.82258 30.8552V51.6354H6.35633L6.35518 23.3315ZM47.9882 51.6331H40.3827V30.8552C40.3837 29.8585 40.7799 28.903 41.4847 28.1982C42.1895 27.4934 43.145 27.0971 44.1417 27.0962H44.2293C45.2257 27.0975 46.181 27.4939 46.8855 28.1985C47.59 28.9033 47.9861 29.8587 47.987 30.8552L47.9882 51.6331ZM33.3004 51.6331H25.6973V30.8552C25.6982 29.8585 26.0945 28.903 26.7993 28.1982C27.504 27.4934 28.4596 27.0971 29.4562 27.0962H29.5438C30.5405 27.0971 31.496 27.4934 32.2007 28.1982C32.9055 28.903 33.3018 29.8585 33.3027 30.8552L33.3004 51.6331ZM18.6127 51.6331H11.0072V30.8552C11.0081 29.8587 11.4043 28.9033 12.1087 28.1985C12.8133 27.4939 13.7685 27.0975 14.765 27.0962H14.8526C15.849 27.0975 16.8043 27.4939 17.5088 28.1985C18.2133 28.9033 18.6094 29.8587 18.6104 30.8552L18.6127 51.6331ZM55.5107 55.7988H3.48815V52.8234H55.5119L55.5107 55.7988Z" fill="#722123"/>
<path d="M29.5 23.2612C30.4873 23.2612 31.4524 22.9684 32.2734 22.4199C33.0943 21.8714 33.7342 21.0918 34.1119 20.1796C34.4898 19.2674 34.5886 18.2637 34.3961 17.2954C34.2034 16.327 33.728 15.4376 33.0299 14.7394C32.3317 14.0413 31.4423 13.5659 30.4739 13.3732C29.5055 13.1806 28.5019 13.2795 27.5897 13.6573C26.6775 14.0351 25.8979 14.675 25.3494 15.4959C24.8009 16.3168 24.5081 17.2819 24.5081 18.2693C24.5096 19.5927 25.0361 20.8616 25.9719 21.7974C26.9077 22.7332 28.1765 23.2597 29.5 23.2612ZM29.5 14.4654C30.2521 14.4654 30.9873 14.6884 31.6127 15.1063C32.2381 15.5241 32.7254 16.1179 33.0133 16.8128C33.3011 17.5077 33.3764 18.2724 33.2297 19.01C33.083 19.7476 32.7208 20.4252 32.189 20.9571C31.6571 21.4889 30.9795 21.8511 30.2419 21.9978C29.5043 22.1445 28.7396 22.0692 28.0447 21.7814C27.3499 21.4935 26.756 21.0062 26.3382 20.3808C25.9203 19.7554 25.6973 19.0202 25.6973 18.2681C25.6991 17.2602 26.1004 16.2939 26.8131 15.5812C27.5258 14.8685 28.4921 14.4672 29.5 14.4654Z" fill="#722123"/>
<path d="M29.5 18.8627H31.3922C31.5496 18.8627 31.7005 18.8001 31.8118 18.6889C31.923 18.5776 31.9856 18.4267 31.9856 18.2693C31.9856 18.1118 31.923 17.9609 31.8118 17.8496C31.7005 17.7384 31.5496 17.6758 31.3922 17.6758H30.0935V15.6719C30.0935 15.5145 30.0309 15.3635 29.9197 15.2522C29.8084 15.141 29.6574 15.0784 29.5 15.0784C29.3426 15.0784 29.1916 15.141 29.0803 15.2522C28.9691 15.3635 28.9066 15.5145 28.9066 15.6719V18.2646C28.9057 18.343 28.9206 18.4208 28.9501 18.4934C28.9796 18.566 29.0232 18.632 29.0784 18.6876C29.1336 18.7432 29.1993 18.7874 29.2716 18.8174C29.344 18.8475 29.4217 18.8628 29.5 18.8627Z" fill="#722123"/>
</svg>
