<svg width="73" height="73" viewBox="0 0 73 73" fill="none" xmlns="http://www.w3.org/2000/svg">
<path d="M29.6562 50.1875C34.6958 50.1875 38.7812 46.1021 38.7812 41.0625C38.7812 36.0229 34.6958 31.9375 29.6562 31.9375C24.6167 31.9375 20.5312 36.0229 20.5312 41.0625C20.5312 46.1021 24.6167 50.1875 29.6562 50.1875Z" stroke="#722123" stroke-width="1.4" stroke-linecap="round" stroke-linejoin="round"/>
<path d="M15.2273 59.3125C16.5222 56.5816 18.5654 54.2744 21.1196 52.6587C23.6738 51.043 26.634 50.1852 29.6562 50.1852C32.6786 50.1852 35.6388 51.043 38.193 52.6587C40.7471 54.2744 42.7903 56.5816 44.0852 59.3125H61.5938C62.1989 59.3125 62.7791 59.0721 63.2069 58.6444C63.6346 58.2166 63.875 57.6364 63.875 57.0312V15.9688C63.875 15.3637 63.6346 14.7835 63.2069 14.3557C62.7791 13.9279 62.1989 13.6875 61.5938 13.6875H11.4062C10.8012 13.6875 10.221 13.9279 9.79315 14.3557C9.36536 14.7835 9.125 15.3637 9.125 15.9688V57.0312C9.125 57.6364 9.36536 58.2166 9.79315 58.6444C10.221 59.0721 10.8012 59.3125 11.4062 59.3125H15.2273Z" stroke="#722123" stroke-width="1.4" stroke-linecap="round" stroke-linejoin="round"/>
<path d="M50.1875 50.1875H54.75V22.8125H18.25V27.375" stroke="#722123" stroke-width="1.4" stroke-linecap="round" stroke-linejoin="round"/>
</svg>
